<svg width="16" height="16" viewBox="0 0 16 16" fill="none" xmlns="http://www.w3.org/2000/svg">
<path d="M7.99373 9.99846C7.86044 9.99877 7.73128 9.94455 7.62865 9.84521L4.20607 6.5136C4.08958 6.4005 4.01632 6.23797 4.00241 6.06178C3.98851 5.88559 4.03509 5.71016 4.13191 5.57408C4.22874 5.43801 4.36787 5.35244 4.51871 5.33619C4.66955 5.31995 4.81973 5.37436 4.93622 5.48746L7.99373 8.47259L11.0512 5.59407C11.1096 5.53873 11.1767 5.49739 11.2488 5.47245C11.3209 5.44751 11.3964 5.43945 11.4712 5.44874C11.5459 5.45803 11.6183 5.48448 11.6843 5.52657C11.7503 5.56867 11.8085 5.62557 11.8555 5.69402C11.9078 5.76253 11.9473 5.84291 11.9718 5.93011C11.9962 6.01732 12.0049 6.10947 11.9974 6.2008C11.9899 6.29213 11.9663 6.38066 11.9282 6.46086C11.89 6.54106 11.8381 6.61119 11.7757 6.66685L8.3531 9.88519C8.24752 9.96882 8.12099 10.0087 7.99373 9.99846Z" fill="#0F0E09"/>
</svg>
