<svg width="58" height="24" viewBox="0 0 58 24" fill="none" xmlns="http://www.w3.org/2000/svg">
<path d="M57.6582 9.44854C51.5595 9.44854 45.4593 9.44854 39.3577 9.44854C36.7876 9.88007 34.2196 9.97718 31.6473 9.86929C27.6307 9.30831 10.0414 9.34065 6.02263 9.44854C4.35236 9.578 2.68211 9.81535 1.01404 10.3008C0.984933 10.3008 0.957015 10.3577 0.936434 10.4588C0.915854 10.56 0.904297 10.6972 0.904297 10.8402C0.904297 10.9833 0.915854 11.1205 0.936434 11.2216C0.957015 11.3228 0.984933 11.3796 1.01404 11.3796C7.17273 9.71825 26.913 10.6784 33.0783 10.9697C35.1151 11.0668 37.1519 10.8834 39.1865 10.5274C45.0218 10.5274 50.8564 10.5274 56.6903 10.5274C57.0656 10.3979 57.4519 10.7755 57.7372 10.3655C57.7524 10.2895 57.7626 10.1931 57.7667 10.0884C57.7707 9.9838 57.7683 9.87563 57.7599 9.77757C57.7514 9.67951 57.7373 9.59595 57.7192 9.5374C57.7011 9.47884 57.6799 9.44791 57.6582 9.44854V9.44854Z" fill="#1082B3"/>
<path d="M56.7618 11.4591C57.9589 10.2524 58.338 10.2524 56.9712 9.04579C56.8987 8.98223 56.8098 8.94018 56.7146 8.92433C56.6195 8.90847 56.5219 8.91945 56.4326 8.95604H56.3327C56.0434 8.65687 54.0283 7.52004 53.0307 6.84192C49.6854 4.50877 46.1932 2.39359 42.5756 0.509532C42.0369 -0.00902555 41.199 0.768822 41.8574 1.23752C45.6978 3.26394 49.4154 5.51493 52.9907 7.97878C53.9884 8.66686 55.2154 9.29511 55.8339 9.81367C56.0115 9.91738 56.2221 9.94948 56.4226 9.90342L56.692 10.1427L56.3927 10.4519L46.5961 20.2446C45.5985 21.2419 44.6008 22.1693 43.673 23.2363C43.6386 23.3075 43.6232 23.3863 43.6282 23.4652C43.6332 23.544 43.6585 23.6203 43.7016 23.6865C43.7448 23.7527 43.8043 23.8066 43.8744 23.8431C43.9446 23.8795 44.023 23.8972 44.102 23.8945C48.5115 20.105 52.5119 15.5577 56.7618 11.4591Z" fill="#1082B3"/>
</svg>
