<svg width="14" height="14" viewBox="0 0 14 14" fill="none" xmlns="http://www.w3.org/2000/svg">
<path fill-rule="evenodd" clip-rule="evenodd" d="M12.2499 4.375H1.74988V12.25C1.74988 12.4821 1.84207 12.7046 2.00616 12.8687C2.17025 13.0328 2.39281 13.125 2.62488 13.125H11.3749C11.6069 13.125 11.8295 13.0328 11.9936 12.8687C12.1577 12.7046 12.2499 12.4821 12.2499 12.25V4.375ZM0.874878 3.5V12.25C0.874878 12.7141 1.05925 13.1592 1.38744 13.4874C1.71563 13.8156 2.16075 14 2.62488 14H11.3749C11.839 14 12.2841 13.8156 12.6123 13.4874C12.9405 13.1592 13.1249 12.7141 13.1249 12.25V3.5H0.874878Z" fill="#0F0E09"/>
<path d="M6.99988 1.3125C6.41972 1.3125 5.86332 1.54297 5.45308 1.9532C5.04285 2.36344 4.81238 2.91984 4.81238 3.5H3.93738C3.93738 2.68777 4.26003 1.90882 4.83436 1.33449C5.40869 0.760155 6.18765 0.4375 6.99988 0.4375C7.8121 0.4375 8.59106 0.760155 9.16539 1.33449C9.73972 1.90882 10.0624 2.68777 10.0624 3.5H9.18738C9.18738 2.91984 8.95691 2.36344 8.54667 1.9532C8.13644 1.54297 7.58004 1.3125 6.99988 1.3125V1.3125Z" fill="#0F0E09"/>
</svg>
