<svg width="42" height="42" viewBox="0 0 42 42" fill="none" xmlns="http://www.w3.org/2000/svg">
<path d="M21 2.625C10.8527 2.625 2.625 10.8527 2.625 21C2.625 31.1473 10.8527 39.375 21 39.375C31.1473 39.375 39.375 31.1473 39.375 21C39.375 10.8527 31.1473 2.625 21 2.625ZM26.9104 21.283L17.9525 27.8004C17.9034 27.8357 17.8455 27.8567 17.7852 27.8613C17.7249 27.8658 17.6645 27.8536 17.6107 27.8261C17.5569 27.7985 17.5117 27.7567 17.4801 27.7051C17.4485 27.6535 17.4317 27.5943 17.4316 27.5338V14.5072C17.4314 14.4466 17.448 14.3872 17.4796 14.3354C17.5111 14.2837 17.5563 14.2417 17.6103 14.2141C17.6642 14.1865 17.7247 14.1743 17.7852 14.179C17.8456 14.1837 17.9035 14.205 17.9525 14.2406L26.9104 20.7539C26.9527 20.7838 26.9872 20.8235 27.011 20.8695C27.0348 20.9155 27.0473 20.9666 27.0473 21.0185C27.0473 21.0703 27.0348 21.1214 27.011 21.1674C26.9872 21.2134 26.9527 21.2531 26.9104 21.283Z" fill="#FCFCF5"/>
</svg>
