<svg width="110" height="110" viewBox="0 0 110 110" fill="none" xmlns="http://www.w3.org/2000/svg">
<g clip-path="url(#clip0_4142_6094)">
<path d="M105.578 33.3564C105.434 33.0212 105.163 32.7569 104.824 32.6215C104.486 32.4862 104.107 32.491 103.772 32.6348C103.437 32.7786 103.172 33.0497 103.037 33.3885C102.902 33.7272 102.906 34.1058 103.05 34.441C108.084 46.2163 108.618 59.4298 104.553 71.5733C100.487 83.7168 92.1046 93.9449 80.996 100.316C69.8874 106.687 56.8262 108.758 44.2917 106.135C31.7572 103.512 20.622 96.3787 12.9998 86.0882L32.1618 72.6682C34.8628 76.1531 38.3247 78.9746 42.2829 80.9169C46.2411 82.8592 50.5909 83.871 55 83.875C70.9214 83.875 83.875 70.9214 83.875 55C83.8752 53.0793 83.6851 51.1632 83.3074 49.28C83.2662 49.0756 83.1791 48.8832 83.0526 48.7174C82.9261 48.5516 82.7635 48.4168 82.5772 48.3231C82.3909 48.2294 82.1857 48.1793 81.9772 48.1767C81.7687 48.174 81.5623 48.2188 81.3736 48.3076L60.0226 58.3858V51.634L66.4026 42.427C66.8928 41.7146 67.1849 40.8847 67.249 40.0223C67.3132 39.1599 67.1471 38.296 66.7678 37.5188C66.4076 36.7612 65.8495 36.1148 65.1526 35.6478C64.4556 35.1809 63.6455 34.9106 62.8078 34.8656C62.7066 34.8656 62.6054 34.8656 62.502 34.8656C61.1166 34.8668 59.7883 35.4176 58.8087 36.3973C57.829 37.3769 57.2782 38.7052 57.277 40.0906V50.4966L49.28 56.1C48.8702 56.3898 48.4886 56.7176 48.1404 57.079V51.0598C48.1404 51.0466 48.1404 51.0356 48.1404 51.0246C48.1404 51.0136 48.1404 50.9696 48.1404 50.941V50.8816C48.1404 50.8574 48.1404 50.8332 48.1294 50.809C48.1256 50.786 48.1204 50.7632 48.114 50.7408C48.1099 50.7208 48.1048 50.7009 48.0986 50.6814C48.0986 50.655 48.0832 50.6286 48.0744 50.6022C48.0656 50.5758 48.0744 50.5714 48.0568 50.5538C48.0392 50.5362 48.0326 50.4988 48.0194 50.4702L48.0062 50.4438V50.4284C47.993 50.402 47.9776 50.3778 47.9622 50.3514L47.9358 50.3074L47.8918 50.248L47.8544 50.1952L47.8148 50.1512C47.7972 50.1314 47.7818 50.1116 47.7642 50.094L47.7246 50.0588C47.7059 50.0394 47.686 50.021 47.6652 50.0038L47.6212 49.9708L47.5618 49.9246L47.5002 49.8872L47.4518 49.8564L47.3726 49.819L47.3352 49.7992L47.2472 49.7662L47.2098 49.753L47.1262 49.7288H47.08L47.0074 49.7156L46.9436 49.7046H46.8842H46.8028H46.75H46.6664H46.607H46.5344L46.4662 49.7178L46.4046 49.7354L46.3298 49.7596L46.2792 49.7772L46.1978 49.8124L46.167 49.8256L29.1214 58.3792C28.364 52.5813 29.5733 46.6969 32.5559 41.6677C35.5385 36.6384 40.1218 32.755 45.5726 30.6388C51.0234 28.5226 57.0265 28.296 62.6213 29.9952C68.2161 31.6945 73.0792 35.2213 76.4324 40.0114C76.6417 40.3097 76.9609 40.5127 77.3198 40.5758C77.6786 40.6389 78.0479 40.557 78.3464 40.348L99.748 25.3616C99.896 25.258 100.022 25.1261 100.119 24.9737C100.216 24.8213 100.282 24.6512 100.313 24.4733C100.345 24.2953 100.341 24.1129 100.301 23.9366C100.262 23.7602 100.188 23.5933 100.085 23.4454C92.2898 12.2706 80.6255 4.38596 67.3505 1.31825C54.0756 -1.74946 40.1345 0.218072 28.2271 6.83983C16.3196 13.4616 7.29305 24.2664 2.8953 37.162C-1.50244 50.0575 -0.958421 64.1262 4.42202 76.6436C4.49324 76.8096 4.59645 76.9599 4.72576 77.086C4.85507 77.2121 5.00795 77.3115 5.17567 77.3785C5.34339 77.4455 5.52267 77.4788 5.70327 77.4765C5.88386 77.4743 6.06224 77.4364 6.22822 77.3652C6.3942 77.294 6.54452 77.1908 6.67061 77.0615C6.7967 76.9322 6.89609 76.7793 6.9631 76.6116C7.0301 76.4438 7.06342 76.2646 7.06114 76.084C7.05886 75.9034 7.02104 75.725 6.94982 75.559C1.91649 63.7837 1.38182 50.5702 5.44732 38.4267C9.51282 26.2832 17.8955 16.0551 29.0041 9.68397C40.1126 3.31279 53.1738 1.24205 65.7083 3.86483C78.2428 6.48761 89.378 13.6213 97.0002 23.9118L77.8382 37.3318C75.1372 33.8469 71.6754 31.0255 67.7172 29.0831C63.7589 27.1408 59.4091 26.129 55 26.125C39.0786 26.125 26.125 39.0786 26.125 55C26.1248 56.9207 26.3149 58.8368 26.6926 60.72C26.7337 60.9277 26.8223 61.123 26.9514 61.2907C27.0806 61.4585 27.2467 61.5941 27.437 61.687C27.6272 61.7798 27.8363 61.8275 28.048 61.8261C28.2597 61.8248 28.4682 61.7745 28.6572 61.6792L45.3772 53.2884V67.54C45.3772 67.9047 45.5221 68.2544 45.7799 68.5123C46.0378 68.7701 46.3875 68.915 46.7522 68.915C47.1169 68.915 47.4666 68.7701 47.7245 68.5123C47.9824 68.2544 48.1272 67.9047 48.1272 67.54V63.7868C48.121 62.7359 48.3614 61.6983 48.8291 60.7572C49.2968 59.8161 49.9787 58.9979 50.82 58.3682L50.8398 58.3528H50.8508L57.2792 53.8516V60.126L50.8992 69.333C50.4087 70.0453 50.1163 70.8752 50.0521 71.7377C49.988 72.6001 50.1543 73.4642 50.534 74.2412C50.8941 74.999 51.4521 75.6455 52.1491 76.1125C52.8461 76.5795 53.6562 76.8496 54.494 76.8944C54.5974 76.8944 54.6986 76.8944 54.802 76.8944C56.1872 76.8927 57.5152 76.3416 58.4947 75.3621C59.4742 74.3826 60.0253 73.0546 60.027 71.6694V61.4174L80.9072 51.5614C81.0543 52.6987 81.1278 53.8444 81.1272 54.9912C81.124 60.545 79.3511 65.9533 76.0659 70.4312C72.7806 74.9091 68.1539 78.2237 62.8572 79.8939C57.5605 81.5641 51.8693 81.503 46.6097 79.7195C41.3501 77.936 36.7956 74.5228 33.6072 69.9754C33.3979 69.6771 33.0788 69.4742 32.7199 69.411C32.361 69.3479 31.9917 69.4299 31.6932 69.6388L10.2806 84.634C10.1326 84.7377 10.0065 84.8695 9.90949 85.0219C9.81247 85.1743 9.74644 85.3444 9.71518 85.5223C9.68391 85.7003 9.68804 85.8827 9.7273 86.059C9.76657 86.2354 9.84021 86.4023 9.94402 86.5502C17.7536 97.6868 29.4121 105.535 42.6688 108.581C55.9255 111.626 69.8404 109.653 81.7273 103.041C93.6142 96.429 102.63 85.648 107.035 72.7789C111.44 59.9099 110.921 45.8653 105.578 33.3564ZM60.0226 40.0818C60.0235 39.745 60.0932 39.412 60.2274 39.1031C60.3615 38.7942 60.5574 38.5159 60.803 38.2854C61.0485 38.0549 61.3385 37.877 61.6553 37.7626C61.9721 37.6481 62.3088 37.5996 62.645 37.62C62.9939 37.6402 63.3307 37.7543 63.62 37.9503C63.9093 38.1462 64.1403 38.4168 64.2884 38.7332C64.4576 39.0705 64.5325 39.4472 64.5054 39.8236C64.4783 40.1999 64.3501 40.562 64.1344 40.8716L60.0226 46.8116V40.0818ZM57.2726 71.6782C57.2708 72.0147 57.2005 72.3473 57.066 72.6558C56.9315 72.9642 56.7356 73.2421 56.4902 73.4724C56.2449 73.7027 55.9552 73.8807 55.6389 73.9955C55.3226 74.1102 54.9862 74.1594 54.6502 74.14C54.3009 74.1207 53.9633 74.0069 53.6735 73.8109C53.3837 73.6149 53.1526 73.3439 53.0046 73.0268C52.8363 72.6892 52.7619 72.3124 52.7894 71.9362C52.8169 71.5599 52.9452 71.198 53.1608 70.8884L57.2726 64.9484V71.6782Z" fill="#EE2E24"/>
<path d="M12.5774 57.9502C11.0836 58.1878 10.2036 59.653 10.4654 61.281L11.1716 65.6942L20.68 64.1718L20.3852 62.337L16.7838 62.92L16.412 60.5924C16.335 60.1172 16.5572 59.8466 17.0588 59.598L19.7274 58.2648L19.4238 56.364L16.1238 58.0206C15.4528 58.3506 15.147 58.6102 15.2108 59.268C14.9586 58.806 14.5712 58.4322 14.1005 58.1966C13.6298 57.9611 13.0984 57.8751 12.5774 57.9502ZM15.18 63.1708L12.5048 63.5998L12.1792 61.5626C12.0054 60.478 12.3376 59.8664 13.2198 59.7256C14.102 59.5848 14.6784 60.049 14.8522 61.1358L15.18 63.1708Z" fill="#EE2E24"/>
<path d="M10.2278 49.5352C9.89999 52.2654 11.5104 54.3994 14.5816 54.78C17.6528 55.1606 19.7252 53.46 20.0552 50.732C20.3852 48.004 18.7748 45.87 15.7036 45.4982C12.6324 45.1264 10.56 46.805 10.2278 49.5352ZM11.858 49.8014L11.8756 49.665C12.0802 47.96 13.4332 47.0844 15.4814 47.3308C17.5296 47.5772 18.6318 48.752 18.4272 50.457L18.4096 50.5956C18.2028 52.3006 16.852 53.1762 14.8038 52.9276C12.7556 52.679 11.66 51.5086 11.858 49.8014V49.8014Z" fill="#EE2E24"/>
<path d="M15.0282 33.9504L11.7832 41.8352L13.31 42.4622L14.575 39.3844L21.9516 42.4204L22.6578 40.7044L15.2834 37.6684L16.555 34.5796L15.0282 33.9504Z" fill="#EE2E24"/>
<path d="M21.5776 24.6752L17.1578 30.47L24.8116 36.3066L29.315 30.4018L28.0016 29.4008L24.6246 33.8294L22.6688 32.3378L25.4606 28.6748L24.1494 27.6738L21.3554 31.3368L19.5954 29.9926L22.8888 25.674L21.5776 24.6752Z" fill="#EE2E24"/>
<path d="M32.2828 19.0454C31.361 17.8442 29.6428 17.7672 28.3448 18.7726L24.8006 21.4962L30.6636 29.1302L32.1354 27.9994L29.92 25.1086L31.7834 23.6764C32.1662 23.3838 32.5094 23.4564 32.967 23.7732L35.42 25.487L36.9468 24.3144L33.9196 22.2002C33.308 21.7602 32.9362 21.6194 32.3796 21.9802C32.664 21.5393 32.8071 21.0221 32.7898 20.4977C32.7725 19.9733 32.5956 19.4667 32.2828 19.0454V19.0454ZM30.5646 22.5654L28.9278 23.8216L27.28 21.6744L28.9168 20.4182C29.7968 19.7582 30.4854 19.7582 31.0288 20.46C31.5722 21.1618 31.438 21.8966 30.5646 22.5654Z" fill="#EE2E24"/>
<path d="M41.2346 12.0076L34.7666 14.7158L38.4846 23.595L40.1984 22.8778L38.709 19.327L42.8318 17.6L42.1938 16.0776L38.071 17.8046L37.1162 15.521L41.8704 13.5278L41.2346 12.0076Z" fill="#EE2E24"/>
<path d="M51.2116 17.5296L52.4128 19.6394L54.3554 19.3424L49.2272 10.3906L47.08 10.7206L44.7744 20.812L46.7038 20.515L47.2164 18.1412L51.2116 17.5296ZM48.411 12.6016L50.336 15.994L47.5904 16.4142L48.411 12.6016Z" fill="#EE2E24"/>
<path d="M64.438 15.7234C64.8362 12.5862 63.0674 10.6964 60.203 10.3334L56.9294 9.91539L55.715 19.4634L59.0568 19.888C61.9212 20.2532 64.0376 18.8606 64.438 15.7234ZM59.059 18.227L57.7632 18.062L58.5618 11.7876L59.8576 11.9526C61.699 12.1858 62.9002 13.101 62.5966 15.488C62.293 17.875 60.9004 18.4602 59.059 18.227Z" fill="#EE2E24"/>
<path d="M65.6392 21.1156L72.4746 24.0152L73.1192 22.495L67.991 20.3214L68.9524 18.0554L73.1918 19.855L73.8364 18.3348L69.597 16.5374L70.4594 14.498L75.46 16.6188L76.1046 15.1008L69.3968 12.254L65.6392 21.1156Z" fill="#EE2E24"/>
<path d="M80.0866 17.4658L74.0432 24.9568L75.4864 26.1228L79.9326 20.6118L78.43 28.4966L80.3022 30.008L86.3456 22.517L84.9024 21.351L80.4716 26.84L81.9588 18.9772L80.0866 17.4658Z" fill="#EE2E24"/>
<path d="M25.8478 87.3224L29.6494 83.2326L31.361 84.8254L32.1486 83.9806L27.7772 79.9172L26.9918 80.7642L28.6968 82.3482L24.8952 86.438L25.8478 87.3224Z" fill="#EE2E24"/>
<path d="M33.5434 93.0248L35.1472 85.9848L33.88 85.14L27.907 89.243L29.0422 90.0042L30.4304 89.0252L32.78 90.6004L32.3972 92.257L33.5434 93.0248ZM31.46 88.3102L33.6908 86.735L33.0726 89.3948L31.46 88.3102Z" fill="#EE2E24"/>
<path d="M41.6086 91.6322C42.13 90.4618 41.6746 89.2386 40.1808 88.572C38.687 87.9054 37.4374 88.4554 37.026 89.3794C36.6146 90.3034 36.8214 91.1394 37.818 91.861L38.8146 92.5782C39.3074 92.9368 39.3646 93.214 39.2062 93.566C39.0302 93.962 38.5308 94.16 37.8708 93.8652L37.7828 93.8256C36.861 93.4142 36.6366 92.7256 36.8676 92.1008L35.6796 91.5706C35.156 92.8664 35.5366 94.0896 37.2196 94.842C38.7398 95.5218 39.9564 95.062 40.4272 94.006C40.8672 93.005 40.4668 92.169 39.5054 91.487L38.665 90.8908C38.1832 90.5498 38.0468 90.2682 38.225 89.8634C38.4032 89.4586 38.9532 89.2936 39.6132 89.5862L39.7012 89.6258C40.3348 89.9074 40.6538 90.442 40.4118 91.102L41.6086 91.6322Z" fill="#EE2E24"/>
<path d="M46.0108 91.7686L46.1054 91.7906C46.8996 91.9886 47.3 92.5254 47.2648 93.2712L48.5254 93.5836C48.7454 92.3274 48.0656 91.0888 46.3364 90.6598C44.3278 90.1582 42.8692 91.2362 42.3764 93.2448C41.8836 95.2534 42.6624 96.8858 44.671 97.3852C46.398 97.8142 47.564 97.0838 47.971 95.8254L46.7082 95.513C46.387 96.206 45.7864 96.4744 44.9922 96.2764L44.8976 96.2522C43.824 95.986 43.285 94.9586 43.6348 93.5572C43.9846 92.1558 44.9372 91.5002 46.0108 91.7686Z" fill="#EE2E24"/>
<path d="M55.2464 98.6062L55.6292 91.8786L54.3334 91.8038L54.175 94.5912L51.2424 94.424L51.4008 91.6388L50.105 91.564L49.72 98.2916L51.018 98.3664L51.1764 95.579L54.109 95.7462L53.9506 98.5314L55.2464 98.6062Z" fill="#EE2E24"/>
<path d="M62.2028 91.1812L57.1406 91.7994L57.9568 98.4874L63.118 97.856L62.9772 96.7098L59.1074 97.1828L58.8984 95.4734L62.0994 95.0818L61.9586 93.9356L58.7576 94.3272L58.5706 92.7872L62.3436 92.3274L62.2028 91.1812Z" fill="#EE2E24"/>
<path d="M70.752 95.678L68.7302 89.2518L67.4894 89.6412L68.9722 94.3514L64.966 90.4354L63.36 90.9414L65.3796 97.3676L66.6182 96.9782L65.1332 92.2504L69.1438 96.184L70.752 95.678Z" fill="#EE2E24"/>
<path d="M75.9792 93.1436C77.0792 92.5562 77.4818 91.4606 77.0088 90.5674C76.8463 90.2238 76.5653 89.9503 76.2173 89.7971C75.8694 89.6439 75.4779 89.6214 75.1146 89.7336C75.3677 89.488 75.531 89.1647 75.5785 88.8152C75.626 88.4658 75.5548 88.1106 75.3764 87.8064C74.9232 86.955 73.8782 86.6294 72.7364 87.2388L70.0964 88.6402L73.26 94.6L75.9792 93.1436ZM71.786 89.0494L73.106 88.3498C73.6604 88.055 74.0828 88.1298 74.3314 88.6028C74.58 89.0758 74.415 89.4828 73.8606 89.7688L72.5406 90.4684L71.786 89.0494ZM74.4656 90.7082C75.0178 90.4156 75.4864 90.4728 75.757 90.9832C76.0276 91.4936 75.8186 91.9204 75.2664 92.213L73.8628 92.9588L73.0642 91.454L74.4656 90.7082Z" fill="#EE2E24"/>
<path d="M83.897 87.6612L83.1886 86.7504L80.1086 89.1418L79.0526 87.78L81.598 85.8022L80.8896 84.8914L78.3442 86.8692L77.3938 85.646L80.3946 83.3118L79.6862 82.401L75.658 85.5294L79.7918 90.8512L83.897 87.6612Z" fill="#EE2E24"/>
<path d="M89.419 81.807L87.4148 80.0052C87.021 79.651 86.614 79.673 86.2598 80.0668L84.8452 81.642L85.7032 82.4142L86.9374 81.0392L86.9748 81.0986C87.4148 81.785 87.2542 82.6386 86.702 83.2458L86.636 83.3184C85.8 84.249 84.6384 84.1742 83.6 83.2414C82.5617 82.3086 82.3659 81.1602 83.2018 80.2296L83.2657 80.157C83.9103 79.442 84.6253 79.4376 85.2259 79.849L86.0948 78.8832C84.9948 78.0208 83.534 78.133 82.3746 79.4222C81.0239 80.9248 81.2636 82.8872 82.731 84.2072C84.1984 85.5272 86.1454 85.5932 87.4632 84.1258C87.7147 83.8734 87.9098 83.5705 88.0357 83.2372C88.1616 82.9039 88.2155 82.5476 88.1936 82.192L88.6798 82.632L89.419 81.807Z" fill="#EE2E24"/>
<path d="M93.5198 75.4688L92.5386 74.8594L90.5344 78.0912L85.789 75.1498L85.1048 76.2542L90.8314 79.805L93.5198 75.4688Z" fill="#EE2E24"/>
<path d="M96.3842 68.7852L95.315 68.3496L93.8454 71.9598L92.2504 71.3108L93.4648 68.3232L92.3934 67.8898L91.179 70.8774L89.7446 70.2922L91.1768 66.77L90.1054 66.3366L88.1848 71.06L94.4262 73.5988L96.3842 68.7852Z" fill="#EE2E24"/>
<path d="M90.7558 63.7121L90.4269 64.97L96.9443 66.6737L97.2732 65.4158L90.7558 63.7121Z" fill="#EE2E24"/>
<path d="M98.2498 59.8928L92.7124 59.1888L93.0072 56.87L91.861 56.7248L91.1086 62.6428L92.2548 62.788L92.5474 60.478L98.0848 61.182L98.2498 59.8928Z" fill="#EE2E24"/>
<path d="M98.3554 50.3008L97.2004 50.3492L97.3676 54.2454L95.6472 54.3202L95.5086 51.0972L94.3536 51.1478L94.4922 54.3686L92.9456 54.4346L92.7806 50.6352L91.6278 50.6858L91.8456 55.7832L98.5776 55.495L98.3554 50.3008Z" fill="#EE2E24"/>
<path d="M92.1206 44.0154C91.0866 44.2354 90.53 45.3024 90.7808 46.4354L91.454 49.489L98.0342 48.037L97.7548 46.7676L95.26 47.3132L94.9058 45.7072C94.8332 45.3772 94.9762 45.177 95.3194 44.9834L97.13 43.9428L96.8396 42.6228L94.6 43.9208C94.1446 44.1782 93.94 44.3718 94.0126 44.8294C93.818 44.5169 93.5324 44.2713 93.1942 44.1258C92.856 43.9803 92.4813 43.9418 92.1206 44.0154V44.0154ZM94.1534 47.5574L92.3032 47.96L91.9908 46.5498C91.8258 45.7974 92.0326 45.3574 92.6508 45.2298C93.269 45.1022 93.6826 45.397 93.8498 46.1494L94.1534 47.5574Z" fill="#EE2E24"/>
</g>
<defs>
<clipPath id="clip0_4142_6094">
<rect width="110" height="110" fill="white"/>
</clipPath>
</defs>
</svg>
