<svg width="53" height="54" viewBox="0 0 53 54" fill="none" xmlns="http://www.w3.org/2000/svg">
<g clip-path="url(#clip0_4143_12319)">
<path d="M50.8694 16.375C50.8001 16.2104 50.6695 16.0806 50.5063 16.0142C50.343 15.9478 50.1606 15.9501 49.9991 16.0207C49.8376 16.0913 49.7102 16.2244 49.645 16.3907C49.5798 16.557 49.5821 16.7429 49.6514 16.9074C52.0766 22.688 52.3342 29.1747 50.3754 35.136C48.4165 41.0973 44.3776 46.1184 39.0253 49.2461C33.673 52.3737 27.3799 53.3903 21.3405 52.1027C15.3012 50.8152 9.93604 47.3132 6.26352 42.2615L15.4961 35.6735C16.7975 37.3843 18.4655 38.7693 20.3726 39.7228C22.2798 40.6763 24.3756 41.173 26.5 41.175C34.1712 41.175 40.4125 34.816 40.4125 27C40.4126 26.0571 40.321 25.1165 40.139 24.192C40.1192 24.0917 40.0772 23.9972 40.0162 23.9158C39.9553 23.8344 39.8769 23.7682 39.7872 23.7223C39.6974 23.6763 39.5985 23.6517 39.4981 23.6504C39.3976 23.649 39.2982 23.671 39.2073 23.7147L28.92 28.6621V25.3476L31.994 20.8278C32.2301 20.4781 32.3709 20.0707 32.4018 19.6473C32.4327 19.224 32.3527 18.7998 32.1699 18.4183C31.9963 18.0464 31.7275 17.7291 31.3917 17.4998C31.0559 17.2706 30.6656 17.1379 30.2619 17.1159C30.2132 17.1159 30.1644 17.1159 30.1146 17.1159C29.4471 17.1164 28.8071 17.3868 28.3351 17.8678C27.8631 18.3487 27.5976 19.0007 27.5971 19.6809V24.7893L23.744 27.54C23.5465 27.6823 23.3627 27.8432 23.1949 28.0206V25.0657C23.1949 25.0593 23.1949 25.0539 23.1949 25.0485C23.1949 25.0431 23.1949 25.0215 23.1949 25.0074V24.9783C23.1949 24.9664 23.1949 24.9545 23.1896 24.9426C23.1877 24.9313 23.1853 24.9201 23.1822 24.9091C23.1802 24.8993 23.1777 24.8896 23.1748 24.88C23.1748 24.867 23.1673 24.8541 23.1631 24.8411C23.1589 24.8281 23.1631 24.826 23.1546 24.8173C23.1461 24.8087 23.143 24.7903 23.1366 24.7763L23.1302 24.7633V24.7558C23.1239 24.7428 23.1165 24.7309 23.109 24.718L23.0963 24.6964L23.0751 24.6672L23.0571 24.6413L23.038 24.6197C23.0295 24.61 23.0221 24.6003 23.0136 24.5916L22.9946 24.5743C22.9855 24.5648 22.976 24.5558 22.9659 24.5473L22.9447 24.5311L22.9161 24.5085L22.8864 24.4901L22.8631 24.475L22.825 24.4566L22.8069 24.4469L22.7645 24.4307L22.7465 24.4242L22.7062 24.4123H22.684L22.649 24.4059L22.6183 24.4005H22.5896H22.5504H22.525H22.4847H22.4561H22.4211L22.3882 24.4069L22.3586 24.4156L22.3225 24.4275L22.2981 24.4361L22.2589 24.4534L22.2441 24.4599L14.0312 28.6589C13.6663 25.8127 14.2489 22.924 15.686 20.455C17.123 17.9861 19.3314 16.0797 21.9577 15.0409C24.584 14.002 27.4764 13.8908 30.172 14.7249C32.8677 15.5591 35.2109 17.2905 36.8265 19.642C36.9274 19.7884 37.0811 19.888 37.254 19.919C37.427 19.95 37.6049 19.9098 37.7487 19.8072L48.0604 12.4503C48.1317 12.3994 48.1925 12.3347 48.2392 12.2598C48.2859 12.185 48.3178 12.1015 48.3328 12.0142C48.3479 11.9268 48.3459 11.8373 48.327 11.7507C48.3081 11.6641 48.2726 11.5822 48.2226 11.5096C44.4669 6.02378 38.8468 2.15311 32.4507 0.647148C26.0546 -0.85882 19.3375 0.10706 13.6003 3.35774C7.86308 6.60842 3.5139 11.9126 1.39498 18.2432C-0.723931 24.5737 -0.46181 31.4801 2.13058 37.625C2.1649 37.7065 2.21463 37.7803 2.27693 37.8422C2.33924 37.9041 2.4129 37.9529 2.49371 37.9858C2.57452 38.0187 2.6609 38.0351 2.74791 38.0339C2.83493 38.0328 2.92087 38.0143 3.00084 37.9793C3.08081 37.9443 3.15324 37.8937 3.214 37.8302C3.27475 37.7667 3.32264 37.6917 3.35492 37.6093C3.38721 37.527 3.40326 37.439 3.40216 37.3503C3.40106 37.2617 3.38284 37.1741 3.34852 37.0926C0.923372 31.312 0.665762 24.8254 2.62459 18.864C4.58343 12.9027 8.62234 7.88162 13.9747 4.75395C19.327 1.62629 25.6201 0.609742 31.6594 1.89729C37.6988 3.18483 43.0639 6.68684 46.7364 11.7385L37.5038 18.3265C36.2025 16.6157 34.5345 15.2307 32.6273 14.2772C30.7202 13.3237 28.6244 12.827 26.5 12.825C18.8288 12.825 12.5875 19.1841 12.5875 27C12.5874 27.9429 12.679 28.8835 12.861 29.808C12.8808 29.91 12.9235 30.0058 12.9857 30.0882C13.0479 30.1705 13.128 30.2371 13.2196 30.2827C13.3113 30.3283 13.412 30.3517 13.514 30.351C13.616 30.3504 13.7165 30.3257 13.8075 30.2789L21.8635 26.1598V33.156C21.8635 33.335 21.9333 33.5067 22.0576 33.6333C22.1818 33.7599 22.3503 33.831 22.526 33.831C22.7017 33.831 22.8703 33.7599 22.9945 33.6333C23.1187 33.5067 23.1885 33.335 23.1885 33.156V31.3135C23.1856 30.7977 23.3014 30.2883 23.5267 29.8263C23.7521 29.3643 24.0806 28.9626 24.486 28.6535L24.4955 28.6459H24.5008L27.5981 26.4363V29.5164L24.5241 34.0362C24.2878 34.3859 24.1469 34.7933 24.116 35.2167C24.0851 35.6401 24.1652 36.0642 24.3482 36.4457C24.5217 36.8177 24.7905 37.1351 25.1263 37.3643C25.4622 37.5936 25.8525 37.7262 26.2562 37.7482C26.306 37.7482 26.3548 37.7482 26.4046 37.7482C27.072 37.7473 27.7119 37.4768 28.1838 36.996C28.6557 36.5151 28.9212 35.8632 28.9221 35.1832V30.1504L38.9825 25.312C39.0534 25.8703 39.0888 26.4327 39.0885 26.9957C39.087 29.7221 38.2328 32.3771 36.6499 34.5753C35.067 36.7736 32.8378 38.4007 30.2857 39.2206C27.7337 40.0406 24.9916 40.0106 22.4574 39.135C19.9232 38.2595 17.7288 36.5839 16.1925 34.3516C16.0917 34.2052 15.9379 34.1055 15.765 34.0745C15.5921 34.0435 15.4142 34.0838 15.2703 34.1863L4.95336 41.5476C4.88206 41.5985 4.82129 41.6632 4.77455 41.738C4.7278 41.8129 4.69598 41.8963 4.68092 41.9837C4.66586 42.0711 4.66785 42.1606 4.68677 42.2472C4.70568 42.3338 4.74117 42.4157 4.79118 42.4883C8.554 47.9554 14.1713 51.8083 20.5586 53.3033C26.9459 54.7984 33.6503 53.8295 39.3777 50.5837C45.105 47.3379 49.4491 42.0454 51.5713 35.7278C53.6936 29.4103 53.4435 22.5157 50.8694 16.375ZM28.92 19.6765C28.9204 19.5112 28.954 19.3477 29.0186 19.1961C29.0833 19.0444 29.1776 18.9078 29.2959 18.7947C29.4142 18.6815 29.554 18.5942 29.7066 18.538C29.8592 18.4818 30.0215 18.458 30.1835 18.468C30.3516 18.4779 30.5139 18.5339 30.6533 18.6301C30.7927 18.7263 30.9039 18.8591 30.9753 19.0145C31.0568 19.1801 31.0929 19.365 31.0799 19.5498C31.0668 19.7345 31.005 19.9123 30.9011 20.0643L28.92 22.9803V19.6765ZM27.595 35.1875C27.5941 35.3527 27.5602 35.516 27.4954 35.6674C27.4306 35.8188 27.3362 35.9552 27.218 36.0683C27.0998 36.1813 26.9602 36.2687 26.8078 36.3251C26.6554 36.3814 26.4933 36.4055 26.3314 36.396C26.1631 36.3865 26.0005 36.3307 25.8609 36.2344C25.7212 36.1382 25.6098 36.0052 25.5386 35.8495C25.4574 35.6838 25.4216 35.4988 25.4349 35.3141C25.4481 35.1294 25.5099 34.9517 25.6138 34.7998L27.595 31.8838V35.1875Z" fill="#EE2E24"/>
<path d="M6.06017 28.4483C5.34043 28.5649 4.91643 29.2842 5.04257 30.0834L5.38283 32.2499L9.96415 31.5025L9.82211 30.6018L8.08689 30.888L7.90775 29.7454C7.87065 29.5121 7.97771 29.3792 8.21939 29.2572L9.50517 28.6027L9.35889 27.6696L7.76889 28.4828C7.44559 28.6448 7.29825 28.7723 7.32899 29.0952C7.20749 28.8684 7.02082 28.6849 6.79403 28.5692C6.56724 28.4536 6.31117 28.4114 6.06017 28.4483ZM7.31415 31.0111L6.02519 31.2217L5.86831 30.2216C5.78457 29.6892 5.94463 29.389 6.36969 29.3198C6.79475 29.2507 7.07247 29.4786 7.15621 30.0121L7.31415 31.0111Z" fill="#EE2E24"/>
<path d="M4.92803 24.3173C4.77009 25.6576 5.54601 26.7052 7.02577 26.892C8.50553 27.0788 9.50405 26.244 9.66305 24.9048C9.82205 23.5656 9.04613 22.518 7.56637 22.3355C6.08661 22.153 5.08809 22.977 4.92803 24.3173ZM5.71349 24.448L5.72197 24.381C5.82055 23.544 6.47245 23.1142 7.45931 23.2351C8.44617 23.3561 8.97723 23.9328 8.87865 24.7698L8.87017 24.8378C8.77053 25.6748 8.11969 26.1047 7.13283 25.9826C6.14597 25.8606 5.61809 25.286 5.71349 24.448Z" fill="#EE2E24"/>
<path d="M7.24108 16.6666L5.67758 20.5373L6.41322 20.8451L7.02272 19.3342L10.5769 20.8246L10.9172 19.9822L7.36404 18.4918L7.97672 16.9754L7.24108 16.6666Z" fill="#EE2E24"/>
<path d="M10.3966 12.1133L8.26704 14.958L11.9548 17.8232L14.1246 14.9245L13.4918 14.4331L11.8647 16.6072L10.9223 15.8749L12.2675 14.0767L11.6357 13.5853L10.2895 15.3835L9.44152 14.7236L11.0283 12.6036L10.3966 12.1133Z" fill="#EE2E24"/>
<path d="M15.5546 9.34957C15.1105 8.75989 14.2826 8.72209 13.6572 9.21565L11.9496 10.5527L14.7745 14.3003L15.4836 13.7452L14.4162 12.326L15.314 11.623C15.4984 11.4793 15.6638 11.515 15.8843 11.6705L17.0662 12.5118L17.8018 11.9362L16.3433 10.8983C16.0486 10.6823 15.8694 10.6132 15.6013 10.7903C15.7383 10.5738 15.8072 10.3199 15.7989 10.0625C15.7906 9.80507 15.7053 9.55635 15.5546 9.34957ZM14.7268 11.0776L13.9381 11.6942L13.1442 10.6402L13.9328 10.0235C14.3568 9.69949 14.6886 9.69949 14.9504 10.044C15.2122 10.3885 15.1476 10.7492 14.7268 11.0776Z" fill="#EE2E24"/>
<path d="M19.8677 5.89465L16.7513 7.22413L18.5427 11.583L19.3684 11.2309L18.6508 9.48781L20.6373 8.64001L20.3299 7.89265L18.3434 8.74045L17.8834 7.61941L20.174 6.64093L19.8677 5.89465Z" fill="#EE2E24"/>
<path d="M24.6749 8.60543L25.2537 9.64115L26.1897 9.49535L23.7188 5.10083L22.6842 5.26283L21.5734 10.2168L22.503 10.071L22.75 8.90567L24.6749 8.60543ZM23.3255 6.18623L24.253 7.85159L22.9302 8.05787L23.3255 6.18623Z" fill="#EE2E24"/>
<path d="M31.0476 7.71875C31.2395 6.17867 30.3872 5.25095 29.0071 5.07275L27.4298 4.86755L26.8447 9.55475L28.4549 9.76319C29.835 9.94247 30.8547 9.25883 31.0476 7.71875ZM28.4559 8.94779L27.8316 8.86679L28.2164 5.78663L28.8407 5.86763C29.7279 5.98211 30.3067 6.43139 30.1604 7.60319C30.0141 8.77499 29.3431 9.06227 28.4559 8.94779Z" fill="#EE2E24"/>
<path d="M31.6263 10.3659L34.9197 11.7893L35.2303 11.043L32.7594 9.97597L33.2227 8.86357L35.2653 9.74701L35.5759 9.00073L33.5332 8.11837L33.9488 7.11721L36.3581 8.15833L36.6687 7.41313L33.4368 6.01561L31.6263 10.3659Z" fill="#EE2E24"/>
<path d="M38.5874 8.57413L35.6756 12.2515L36.3709 12.8239L38.5132 10.1185L37.7892 13.9892L38.6913 14.7312L41.6031 11.0538L40.9077 10.4814L38.7729 13.176L39.4894 9.31609L38.5874 8.57413Z" fill="#EE2E24"/>
<path d="M12.4542 42.8674L14.2859 40.8596L15.1105 41.6416L15.49 41.2268L13.3838 39.2321L13.0054 39.6479L13.8269 40.4255L11.9952 42.4332L12.4542 42.8674Z" fill="#EE2E24"/>
<path d="M16.162 45.6667L16.9348 42.2107L16.3242 41.796L13.4463 43.8102L13.9932 44.1839L14.6621 43.7033L15.7942 44.4766L15.6098 45.2898L16.162 45.6667ZM15.1582 43.3523L16.233 42.579L15.9352 43.8847L15.1582 43.3523Z" fill="#EE2E24"/>
<path d="M20.0479 44.9831C20.2991 44.4085 20.0797 43.808 19.36 43.4808C18.6402 43.1536 18.0382 43.4236 17.8399 43.8772C17.6417 44.3308 17.7414 44.7412 18.2215 45.0954L18.7017 45.4475C18.9392 45.6235 18.9667 45.7596 18.8904 45.9324C18.8056 46.1268 18.565 46.224 18.247 46.0793L18.2046 46.0598C17.7604 45.8579 17.6523 45.5198 17.7636 45.2131L17.1912 44.9528C16.9389 45.589 17.1223 46.1894 17.9332 46.5588C18.6657 46.8925 19.2519 46.6668 19.4787 46.1484C19.6907 45.657 19.4978 45.2466 19.0346 44.9118L18.6296 44.6191C18.3975 44.4517 18.3318 44.3135 18.4176 44.1148C18.5035 43.916 18.7685 43.835 19.0865 43.9787L19.1289 43.9981C19.4342 44.1364 19.5879 44.3988 19.4713 44.7228L20.0479 44.9831Z" fill="#EE2E24"/>
<path d="M22.169 45.05L22.2146 45.0608C22.5972 45.158 22.7902 45.4216 22.7732 45.7877L23.3806 45.941C23.4866 45.3244 23.159 44.7163 22.3259 44.5057C21.3581 44.2595 20.6553 44.7887 20.4179 45.7747C20.1804 46.7608 20.5557 47.5621 21.5235 47.8073C22.3556 48.0179 22.9174 47.6593 23.1135 47.0416L22.505 46.8882C22.3503 47.2284 22.0609 47.3602 21.6782 47.263L21.6326 47.2511C21.1154 47.1204 20.8557 46.616 21.0242 45.9281C21.1927 45.2401 21.6517 44.9183 22.169 45.05Z" fill="#EE2E24"/>
<path d="M26.6189 48.4067L26.8034 45.104L26.179 45.0673L26.1027 46.4357L24.6897 46.3536L24.766 44.9863L24.1417 44.9496L23.9562 48.2522L24.5816 48.289L24.6579 46.9206L26.0709 47.0027L25.9946 48.37L26.6189 48.4067Z" fill="#EE2E24"/>
<path d="M29.9706 44.7617L27.5316 45.0652L27.9248 48.3484L30.4116 48.0384L30.3438 47.4757L28.4792 47.7079L28.3785 46.8688L29.9208 46.6765L29.853 46.1138L28.3107 46.3061L28.2206 45.5501L30.0385 45.3244L29.9706 44.7617Z" fill="#EE2E24"/>
<path d="M34.0897 46.9692L33.1156 43.8145L32.5177 44.0057L33.2322 46.318L31.3019 44.3956L30.5281 44.644L31.5012 47.7986L32.098 47.6075L31.3825 45.2866L33.3148 47.2176L34.0897 46.9692Z" fill="#EE2E24"/>
<path d="M36.6082 45.725C37.1382 45.4367 37.3322 44.8988 37.1043 44.4604C37.026 44.2917 36.8906 44.1574 36.723 44.0822C36.5553 44.007 36.3667 43.996 36.1917 44.051C36.3136 43.9305 36.3923 43.7717 36.4152 43.6002C36.438 43.4287 36.4037 43.2543 36.3178 43.105C36.0994 42.687 35.5959 42.5272 35.0458 42.8263L33.7738 43.5143L35.2981 46.44L36.6082 45.725ZM34.5879 43.7152L35.2239 43.3717C35.491 43.227 35.6945 43.2637 35.8143 43.4959C35.9341 43.7281 35.8546 43.9279 35.5875 44.0683L34.9515 44.4118L34.5879 43.7152ZM35.879 44.5295C36.145 44.3858 36.3708 44.4139 36.5012 44.6645C36.6316 44.915 36.5309 45.1246 36.2648 45.2682L35.5885 45.6343L35.2037 44.8956L35.879 44.5295Z" fill="#EE2E24"/>
<path d="M40.4232 43.0337L40.0819 42.5866L38.5979 43.7605L38.0891 43.092L39.3155 42.1211L38.9742 41.674L37.7477 42.6449L37.2898 42.0444L38.7357 40.8985L38.3943 40.4514L36.4535 41.9872L38.4452 44.5997L40.4232 43.0337Z" fill="#EE2E24"/>
<path d="M43.0838 40.1598L42.1181 39.2753C41.9284 39.1014 41.7323 39.1122 41.5616 39.3055L40.8801 40.0788L41.2935 40.4579L41.8881 39.7829L41.9061 39.812C42.1181 40.149 42.0408 40.568 41.7747 40.8661L41.7429 40.9018C41.3401 41.3586 40.7804 41.3219 40.2801 40.864C39.7798 40.406 39.6854 39.8423 40.0882 39.3854L40.119 39.3498C40.4296 38.9988 40.7741 38.9966 41.0634 39.1986L41.4821 38.7245C40.9521 38.3011 40.2483 38.3562 39.6897 38.9891C39.0388 39.7267 39.1544 40.6901 39.8614 41.3381C40.5684 41.9861 41.5065 42.0185 42.1414 41.2981C42.2626 41.1742 42.3566 41.0255 42.4173 40.8619C42.478 40.6983 42.5039 40.5234 42.4934 40.3488L42.7276 40.5648L43.0838 40.1598Z" fill="#EE2E24"/>
<path d="M45.0597 37.0483L44.5869 36.7492L43.6213 38.3357L41.3348 36.8917L41.0052 37.4339L43.7644 39.177L45.0597 37.0483Z" fill="#EE2E24"/>
<path d="M46.4399 33.7673L45.9247 33.5534L45.2167 35.3257L44.4482 35.0071L45.0333 33.5405L44.5171 33.3277L43.9319 34.7944L43.2408 34.5071L43.9309 32.778L43.4147 32.5652L42.4893 34.884L45.4965 36.1303L46.4399 33.7673Z" fill="#EE2E24"/>
<path d="M43.728 31.2768L43.5695 31.8944L46.7097 32.7307L46.8682 32.1132L43.728 31.2768Z" fill="#EE2E24"/>
<path d="M47.3388 29.4019L44.6707 29.0563L44.8128 27.918L44.2605 27.8467L43.898 30.7519L44.4503 30.8232L44.5912 29.6892L47.2593 30.0348L47.3388 29.4019Z" fill="#EE2E24"/>
<path d="M47.3895 24.6931L46.833 24.7169L46.9136 26.6296L46.0846 26.6663L46.0179 25.0841L45.4614 25.1089L45.5281 26.6901L44.783 26.7225L44.7035 24.8573L44.148 24.8821L44.253 27.3845L47.4966 27.243L47.3895 24.6931Z" fill="#EE2E24"/>
<path d="M44.3855 21.6076C43.8873 21.7156 43.6191 22.2394 43.74 22.7956L44.0643 24.2946L47.2348 23.5818L47.1002 22.9586L45.8981 23.2265L45.7275 22.4381C45.6925 22.2761 45.7614 22.1778 45.9268 22.0828L46.7991 21.5719L46.6592 20.9239L45.5801 21.5611C45.3607 21.6875 45.2621 21.7825 45.2971 22.0072C45.2033 21.8537 45.0657 21.7332 44.9028 21.6618C44.7398 21.5903 44.5593 21.5714 44.3855 21.6076ZM45.365 23.3464L44.4735 23.544L44.323 22.8517C44.2435 22.4824 44.3431 22.2664 44.641 22.2037C44.9388 22.1411 45.1381 22.2858 45.2187 22.6552L45.365 23.3464Z" fill="#EE2E24"/>
</g>
<defs>
<clipPath id="clip0_4143_12319">
<rect width="53" height="54" fill="white"/>
</clipPath>
</defs>
</svg>
