<svg width="358" height="361" viewBox="0 0 358 361" fill="none" xmlns="http://www.w3.org/2000/svg">
<g clip-path="url(#clip0_4142_5197)">
<path d="M297.279 91.1963C296.691 90.3969 295.816 89.8645 294.844 89.7162C293.872 89.568 292.885 89.816 292.098 90.4058C291.312 90.9955 290.791 91.8787 290.65 92.861C290.509 93.8433 290.76 94.8443 291.348 95.6437C311.936 123.738 321.66 158.442 318.671 193.169C315.683 227.896 300.192 260.228 275.138 284.027C250.084 307.827 217.211 321.437 182.76 322.275C148.309 323.113 114.677 311.12 88.2496 288.573L129.936 241.076C139.2 248.637 150.036 253.966 161.617 256.656C173.198 259.345 185.217 259.324 196.757 256.594C238.418 246.696 264.154 204.295 254.124 162.078C252.914 156.985 251.21 152.023 249.035 147.264C248.798 146.748 248.449 146.292 248.014 145.931C247.578 145.57 247.068 145.313 246.521 145.181C245.975 145.048 245.406 145.043 244.859 145.165C244.312 145.288 243.8 145.535 243.362 145.888L193.842 185.884L189.589 167.982L200.483 139.602C201.317 137.408 201.558 135.026 201.183 132.7C200.808 130.373 199.829 128.185 198.347 126.361C196.927 124.576 195.059 123.209 192.942 122.404C190.824 121.599 188.534 121.386 186.313 121.787C186.048 121.85 185.784 121.913 185.513 121.977C181.889 122.842 178.76 125.128 176.814 128.335C174.867 131.541 174.263 135.406 175.132 139.08L181.688 166.672L164.292 186.502C163.402 187.525 162.61 188.631 161.927 189.806L158.135 173.846C158.127 173.811 158.12 173.782 158.113 173.753C158.106 173.723 158.078 173.607 158.06 173.531L158.023 173.373C158.008 173.309 157.992 173.245 157.948 173.188C157.924 173.129 157.896 173.072 157.865 173.016C157.842 172.966 157.816 172.916 157.787 172.868C157.771 172.798 157.714 172.738 157.674 172.674C157.634 172.609 157.655 172.592 157.598 172.556C157.54 172.52 157.5 172.425 157.447 172.358L157.396 172.296L157.386 172.255C157.335 172.193 157.279 172.139 157.222 172.078L157.126 171.978L156.973 171.848L156.842 171.731L156.711 171.639C156.652 171.597 156.599 171.555 156.542 171.519L156.416 171.45C156.355 171.41 156.292 171.374 156.226 171.341L156.09 171.281L155.906 171.195L155.721 171.135L155.575 171.083L155.344 171.033L155.234 171.004L154.983 170.971L154.877 170.959L154.643 170.947L154.522 170.976L154.324 170.986L154.15 170.996L153.994 171.033L153.781 171.084L153.643 171.117L153.424 171.169L153.269 171.206L153.079 171.251L152.909 171.328L152.759 171.413L152.578 171.524L152.457 171.602L152.266 171.746L152.194 171.8L112.979 205.077C107.345 190.175 106.802 173.82 111.438 158.63C116.075 143.441 125.621 130.294 138.551 121.294C151.481 112.294 167.047 107.961 182.757 108.989C198.467 110.016 213.414 116.345 225.206 126.962C225.942 127.622 226.905 127.962 227.884 127.906C228.863 127.851 229.777 127.404 230.427 126.664L276.987 73.6218C277.309 73.255 277.556 72.827 277.714 72.3626C277.872 71.8981 277.938 71.4061 277.907 70.9148C277.877 70.4235 277.751 69.9425 277.537 69.4992C277.323 69.056 277.026 68.6592 276.661 68.3316C249.224 43.5467 213.736 29.8912 177.067 30.0096C140.398 30.1281 105.158 44.012 78.171 68.9727C51.1843 93.9334 34.3712 128.195 30.9874 165.122C27.6036 202.05 37.8899 239.016 59.8544 268.862C60.1453 269.258 60.51 269.592 60.9278 269.846C61.3456 270.1 61.8083 270.269 62.2894 270.342C62.7705 270.415 63.2606 270.392 63.7317 270.274C64.2028 270.156 64.6458 269.945 65.0352 269.653C65.4247 269.361 65.753 268.993 66.0015 268.572C66.25 268.151 66.4137 267.684 66.4834 267.197C66.5531 266.711 66.5273 266.215 66.4076 265.737C66.2878 265.26 66.0765 264.81 65.7856 264.415C45.1969 236.321 35.4738 201.616 38.462 166.889C41.4502 132.163 56.9416 99.8307 81.9957 76.0311C107.05 52.2315 139.922 38.6209 174.374 37.783C208.825 36.9452 242.456 48.9383 268.884 71.4858L227.197 118.983C217.934 111.421 207.098 106.092 195.517 103.403C183.936 100.713 171.916 100.734 160.376 103.465C118.715 113.363 92.9798 155.763 103.01 197.98C104.219 203.073 105.924 208.035 108.098 212.794C108.337 213.319 108.692 213.782 109.135 214.147C109.579 214.511 110.099 214.767 110.655 214.895C111.212 215.023 111.789 215.02 112.342 214.885C112.895 214.749 113.409 214.486 113.843 214.116L152.309 181.473L161.287 219.262C161.516 220.229 162.116 221.066 162.953 221.59C163.79 222.113 164.796 222.28 165.751 222.053C166.705 221.827 167.529 221.225 168.041 220.381C168.553 219.537 168.712 218.52 168.482 217.553L166.118 207.601C165.44 204.818 165.415 201.917 166.046 199.131C166.677 196.345 167.946 193.751 169.751 191.559L169.793 191.506L169.822 191.499L183.807 175.567L187.76 192.204L176.865 220.584C176.03 222.777 175.788 225.16 176.164 227.486C176.539 229.813 177.519 232.001 179.002 233.825C180.421 235.611 182.289 236.978 184.407 237.783C186.525 238.588 188.815 238.801 191.035 238.398C191.306 238.334 191.571 238.271 191.841 238.207C195.465 237.341 198.593 235.054 200.539 231.848C202.485 228.642 203.09 224.778 202.222 221.104L195.764 193.92L244.192 154.806C245.293 157.73 246.207 160.722 246.928 163.763C250.418 178.492 249.186 193.934 243.411 207.85C237.635 221.766 227.616 233.431 214.809 241.153C202.001 248.874 187.071 252.25 172.184 250.791C157.298 249.332 143.23 243.113 132.022 233.037C131.287 232.376 130.324 232.036 129.345 232.092C128.366 232.148 127.451 232.595 126.802 233.334L80.2182 286.407C79.8962 286.774 79.6493 287.202 79.4914 287.666C79.3335 288.131 79.2679 288.623 79.2982 289.114C79.3285 289.605 79.4542 290.086 79.668 290.53C79.8819 290.973 80.1797 291.37 80.5445 291.697C107.996 316.372 143.446 329.935 180.054 329.769C216.661 329.603 251.828 315.719 278.768 290.798C305.707 265.876 322.507 231.684 325.926 194.823C329.345 157.961 319.139 121.043 297.279 91.1963ZM182.311 137.35C182.101 136.456 182.074 135.53 182.23 134.627C182.387 133.725 182.724 132.865 183.222 132.102C183.719 131.338 184.366 130.686 185.123 130.185C185.879 129.685 186.73 129.347 187.622 129.192C188.548 129.029 189.501 129.122 190.382 129.462C191.262 129.801 192.037 130.375 192.624 131.122C193.279 131.911 193.713 132.864 193.879 133.878C194.045 134.893 193.938 135.933 193.568 136.888L186.551 155.195L182.311 137.35ZM195.02 222.84C195.227 223.733 195.253 224.659 195.095 225.561C194.937 226.462 194.6 227.321 194.103 228.084C193.606 228.847 192.96 229.499 192.205 230C191.449 230.501 190.6 230.84 189.709 230.998C188.783 231.164 187.828 231.072 186.946 230.732C186.064 230.393 185.288 229.818 184.702 229.069C184.048 228.279 183.617 227.326 183.451 226.311C183.286 225.296 183.394 224.257 183.763 223.302L190.78 204.995L195.02 222.84Z" fill="#FF0F00"/>
<path d="M69.4185 214.225C65.6594 215.783 64.2797 220.216 65.9904 224.37L70.6184 235.633L94.5399 225.685L92.6127 221.003L83.5562 224.788L81.117 218.847C80.6161 217.635 81.0271 216.779 82.183 215.808L88.3261 210.614L86.3342 205.763L78.7427 212.207C77.1948 213.499 76.5582 214.377 77.1395 216.082C76.1886 215.014 74.9393 214.263 73.5593 213.931C72.1792 213.599 70.7344 213.702 69.4185 214.225ZM79.5175 226.45L72.7876 229.25L70.6522 224.051C69.5142 221.283 69.9982 219.455 72.2179 218.533C74.4377 217.611 76.2384 218.484 77.3778 221.257L79.5175 226.45Z" fill="#FF0F00"/>
<path d="M57.9692 193.373C58.8314 200.816 64.3897 205.473 72.6658 204.573C80.9419 203.673 85.2935 197.875 84.4384 190.437C83.5834 182.998 78.0251 178.341 69.7545 179.264C61.4839 180.187 57.1186 185.927 57.9692 193.373ZM62.4026 193.065L62.3628 192.692C61.8241 188.044 64.8128 184.881 70.3276 184.261C75.8423 183.641 79.4665 186.071 80.0052 190.719L80.0465 191.098C80.5794 195.747 77.5964 198.909 72.0803 199.523C66.5642 200.137 62.96 197.715 62.4026 193.065Z" fill="#FF0F00"/>
<path d="M60.7122 149.064L57.1882 171.989L61.5784 172.702L62.9496 163.755L84.1644 167.219L84.9313 162.23L63.7222 158.764L65.1038 149.783L60.7122 149.064Z" fill="#FF0F00"/>
<path d="M72.007 120.398L64.0922 138.511L87.7967 149.229L95.8609 130.773L91.7936 128.935L85.7469 142.777L79.6895 140.038L84.6872 128.59L80.6256 126.751L75.6221 138.2L70.1699 135.73L76.0672 122.232L72.007 120.398Z" fill="#FF0F00"/>
<path d="M96.4731 98.8155C93.3043 96.2035 88.7598 97.0675 85.9967 100.54L78.4384 109.966L98.5892 126.563L101.728 122.649L94.11 116.362L98.0837 111.405C98.901 110.392 99.8448 110.371 101.242 110.926L108.74 113.946L111.997 109.887L102.744 106.163C100.866 105.377 99.8044 105.235 98.5752 106.537C99.0416 105.191 99.0902 103.731 98.7146 102.351C98.339 100.971 97.557 99.738 96.4731 98.8155ZM94.1946 109.217L90.7029 113.566L85.0385 108.897L88.5301 104.548C90.4171 102.251 92.2189 101.823 94.0829 103.346C95.9469 104.869 96.0587 106.901 94.1946 109.217Z" fill="#FF0F00"/>
<path d="M115.464 74.5889L100.245 85.7909L115.568 107.023L119.6 104.056L113.466 95.5669L123.166 88.4246L120.538 84.7845L110.838 91.9268L106.901 86.4652L118.085 78.2245L115.464 74.5889Z" fill="#FF0F00"/>
<path d="M145.049 83.0284L149.521 87.8759L154.417 85.8807L135.359 65.3324L129.948 67.5423L130.272 95.7338L135.134 93.7468L134.98 87.1338L145.049 83.0284ZM134.616 71.7024L141.79 79.5009L134.871 82.322L134.616 71.7024Z" fill="#FF0F00"/>
<path d="M178.52 70.0166C177.586 61.4505 171.767 57.5391 164.043 58.3573L155.214 59.2841L158.051 85.3564L167.063 84.4047C174.788 83.5923 179.449 78.584 178.52 70.0166ZM166.022 79.9991L162.528 80.3671L160.665 63.2336L164.159 62.8655C169.125 62.3391 172.844 64.0191 173.554 70.5371C174.263 77.0552 170.988 79.4727 166.022 79.9991Z" fill="#FF0F00"/>
<path d="M185.06 83.5676L204.773 87.0067L205.502 82.575L190.714 79.9996L191.802 73.3934L204.029 75.5297L204.758 71.098L192.533 68.9676L193.505 63.0239L207.926 65.5386L208.656 61.1127L189.31 57.7343L185.06 83.5676Z" fill="#FF0F00"/>
<path d="M220.566 64.9085L209.471 88.5285L213.982 90.7231L222.145 73.3461L223.18 95.1874L229.031 98.0311L240.126 74.4111L235.615 72.2165L227.479 89.5256L226.417 67.7522L220.566 64.9085Z" fill="#FF0F00"/>
<path d="M122.647 283.858L130.018 270.65L135.5 273.809L137.029 271.08L123.03 263.023L121.509 265.757L126.968 268.897L119.597 282.105L122.647 283.858Z" fill="#FF0F00"/>
<path d="M146.375 294.194L146.137 274.53L142.289 273.078L129.244 287.67L132.694 288.983L135.71 285.524L142.85 288.24L142.892 292.871L146.375 294.194ZM137.954 282.988L142.799 277.425L142.856 284.862L137.954 282.988Z" fill="#FF0F00"/>
<path d="M166.603 285.488C167.23 282.06 165.268 279.1 160.939 278.261C156.61 277.422 153.687 279.657 153.192 282.363C152.698 285.069 153.766 287.157 156.828 288.451L159.888 289.733C161.403 290.377 161.727 291.077 161.535 292.109C161.324 293.268 160.142 294.104 158.229 293.732L157.974 293.682C155.302 293.164 154.281 291.478 154.492 289.677L151.05 289.01C150.496 292.772 152.262 295.778 157.14 296.727C161.546 297.585 164.44 295.609 165.007 292.516C165.528 289.589 163.953 287.621 161.008 286.41L158.433 285.352C156.958 284.747 156.423 284.085 156.635 282.901C156.846 281.717 158.181 280.937 160.093 281.303L160.348 281.353C162.183 281.706 163.355 282.925 163.137 284.826L166.603 285.488Z" fill="#FF0F00"/>
<path d="M178.208 283.113L178.469 283.112C180.672 283.143 182.058 284.318 182.436 286.317L185.931 286.362C185.715 282.894 183.156 280.033 178.361 279.97C172.789 279.889 169.652 283.654 169.628 289.286C169.603 294.919 172.67 298.763 178.24 298.838C183.029 298.902 185.62 296.241 185.893 292.651L182.391 292.608C181.988 294.645 180.585 295.73 178.382 295.699L178.119 295.693C175.142 295.655 173.085 293.266 173.117 289.332C173.15 285.399 175.229 283.068 178.208 283.113Z" fill="#FF0F00"/>
<path d="M206.682 295.501L203.446 277.424L200.008 278.031L201.35 285.521L193.571 286.901L192.23 279.417L188.793 280.024L192.023 298.102L195.467 297.494L194.125 290.004L201.905 288.625L203.245 296.108L206.682 295.501Z" fill="#FF0F00"/>
<path d="M220.208 271.489L207.351 276.275L213.7 293.501L226.807 288.618L225.717 285.667L215.889 289.327L214.265 284.924L222.394 281.896L221.304 278.944L213.174 281.972L211.715 278.005L221.298 274.44L220.208 271.489Z" fill="#FF0F00"/>
<path d="M245.41 278.097L236.072 262.315L233.07 264.119L239.917 275.686L226.967 267.793L223.084 270.133L232.417 285.917L235.412 284.115L228.548 272.502L241.521 280.439L245.41 278.097Z" fill="#FF0F00"/>
<path d="M257.492 268.128C260.001 265.887 260.364 262.731 258.563 260.657C257.922 259.847 257.014 259.296 256.007 259.106C255 258.917 253.961 259.1 253.082 259.624C253.589 258.815 253.813 257.856 253.717 256.9C253.621 255.944 253.211 255.046 252.553 254.351C250.83 252.375 247.891 252.161 245.287 254.487L239.262 259.844L251.294 273.68L257.492 268.128ZM243.941 259.879L246.954 257.203C248.219 256.077 249.371 256.012 250.32 257.112C251.268 258.212 251.093 259.393 249.823 260.496L246.809 263.172L243.941 259.879ZM251.997 262.611C253.258 261.492 254.52 261.352 255.55 262.538C256.579 263.723 256.301 264.984 255.041 266.103L251.838 268.954L248.8 265.46L251.997 262.611Z" fill="#FF0F00"/>
<path d="M274.757 248.669L272.33 246.694L265.777 254.95L262.156 251.995L267.57 245.169L265.143 243.194L259.728 250.021L256.471 247.368L262.853 239.313L260.425 237.339L251.855 248.138L266.025 259.679L274.757 248.669Z" fill="#FF0F00"/>
<path d="M285.518 229.712L279.138 226.181C277.885 225.486 276.833 225.798 276.155 227.062L273.445 232.118L276.177 233.632L278.54 229.219L278.676 229.353C280.259 230.9 280.377 233.263 279.314 235.217L279.187 235.45C277.586 238.437 274.5 238.961 271.195 237.133C267.89 235.305 266.654 232.382 268.255 229.395L268.377 229.163C269.613 226.866 271.481 226.41 273.312 227.127L274.977 224.026C271.556 222.423 267.804 223.629 265.582 227.768C262.994 232.592 264.858 237.647 269.529 240.234C274.201 242.822 279.337 241.787 281.861 237.077C282.36 236.251 282.679 235.327 282.799 234.365C282.918 233.402 282.835 232.424 282.554 231.495L284.103 232.359L285.518 229.712Z" fill="#FF0F00"/>
<path d="M292.256 210.357L289.304 209.351L286.096 219.167L271.826 214.317L270.731 217.671L287.953 223.526L292.256 210.357Z" fill="#FF0F00"/>
<path d="M295.54 190.854L292.468 190.364L290.897 200.85L286.314 200.121L287.61 191.444L284.533 190.961L283.238 199.638L279.116 198.978L280.644 188.748L277.568 188.265L275.518 201.983L293.449 204.835L295.54 190.854Z" fill="#FF0F00"/>
<path d="M277.617 180.901L277.549 184.441L295.676 184.907L295.744 181.367L277.617 180.901Z" fill="#FF0F00"/>
<path d="M294.82 166.115L279.887 167.691L279.197 161.359L276.107 161.687L277.866 177.847L280.957 177.519L280.267 171.212L295.2 169.636L294.82 166.115Z" fill="#FF0F00"/>
<path d="M289.055 140.616L286.063 141.462L288.955 151.689L284.5 152.957L282.107 144.497L279.117 145.35L281.508 153.804L277.503 154.94L274.678 144.968L271.693 145.819L275.474 159.2L292.908 154.251L289.055 140.616Z" fill="#FF0F00"/>
<path d="M268.781 127.825C266.214 129.052 265.429 132.227 266.799 135.075L270.484 142.754L286.788 134.813L285.257 131.62L279.073 134.618L277.134 130.58C276.737 129.75 276.985 129.13 277.761 128.404L281.843 124.519L280.251 121.199L275.209 126.033C274.179 126.999 273.766 127.639 274.244 128.808C273.538 128.1 272.636 127.626 271.659 127.451C270.683 127.275 269.678 127.406 268.781 127.825ZM276.331 135.954L271.743 138.171L270.038 134.626C269.132 132.734 269.396 131.439 270.933 130.716C272.47 129.993 273.738 130.518 274.65 132.409L276.331 135.954Z" fill="#FF0F00"/>
</g>
<defs>
<clipPath id="clip0_4142_5197">
<rect width="295.848" height="299.793" fill="white" transform="translate(0 68.3843) rotate(-13.3646)"/>
</clipPath>
</defs>
</svg>
